<svg xmlns="http://www.w3.org/2000/svg" aria-hidden="true" style="position:absolute;width:0;height:0;overflow:hidden">
    <defs>
        <symbol id="sprinkler" viewBox="0 0 32 32">
<path fill="green" d="M5.5 22.875l-0.25 0.25v0.25l0.25 0.25v0.125l0.125 0.125v0.25l0.125 0.125v0.125l0.125 0.125v0.25l0.125 0.125v0.25l0.125 0.125v0.5l0.125 0.125v0.75l-0.125 0.125h-1.5l-0.125 0.125h-0.25v0.5h0.125l0.125 0.125h2.125l0.125-0.125h0.125v-1.625l-0.125-0.125v-0.5l-0.125-0.125v-0.25l-0.125-0.125v-0.25l0.125-0.125h0.125l0.375 0.375v0.125l0.375 0.375v0.125l0.25 0.25v0.125l0.125 0.125v0.125l0.125 0.125v0.125l0.125 0.125v0.125l0.125 0.125v0.375l0.125 0.125v0.25l0.125 0.125h0.375l0.125-0.125v-0.125l0.125-0.125v-0.5l0.125-0.125v-0.25l0.125-0.125v-0.25l0.125-0.125v-0.125l0.125-0.125v-0.125l0.125-0.125v-0.125l0.125-0.125v-0.125l0.125-0.125v-0.125l0.375-0.375 0.125 0.125v0.25l0.125 0.125v0.375l0.125 0.125v1.5l0.125 0.125v0.625h0.5v-0.125l0.125-0.125v-0.25l0.125-0.125v-0.25l0.125-0.125v-0.125l0.125-0.125v-0.25l0.125-0.125v-0.125l0.25-0.25v-0.125l0.375-0.375h0.125l0.125 0.125v0.125l0.25 0.25v0.125l0.125 0.125v0.25l0.125 0.125v0.25l0.125 0.125v0.375l0.125 0.125v0.375l0.125 0.125h0.125l0.125 0.125 0.25-0.25v-0.375l0.125-0.125v-0.375l0.125-0.125v-0.25l0.125-0.125v-0.125l0.125-0.125v-0.125l0.125-0.125v-0.125l0.375-0.375v-0.125l0.625-0.625 0.125 0.125v1.875l0.125 0.125v1l0.125 0.125h0.375l0.125-0.125v-0.125l0.125-0.125v-0.25l0.125-0.125v-0.125l0.125-0.125v-0.125l0.125-0.125v-0.125l0.375-0.375v-0.125l0.625-0.625 0.25 0.25v0.625l0.125 0.125v1.25l0.125 0.125v0.125h0.375l0.375-0.375v-0.125l0.125-0.125v-0.125l0.125-0.125v-0.25l0.125-0.125v-0.125l0.125-0.125v-0.125l0.125-0.125v-0.125l0.125-0.125v-0.125l0.125-0.125v-0.125l0.125-0.125v-0.125l0.125-0.125v-0.25l0.125-0.125 0.25 0.25v0.125l0.125 0.125v0.375l0.125 0.125v0.5l0.125 0.125v1.375l0.125 0.125h0.375v-0.125l0.125-0.125v-0.125l0.125-0.125v-0.125l0.125-0.125v-0.25l0.125-0.125v-0.125l0.25-0.25v-0.125l0.25-0.25 0.25 0.25v0.25l0.125 0.125v0.375l0.125 0.125h0.5v-0.25l0.125-0.125v-0.125l0.125-0.125v-0.125l0.125-0.125v-0.125l0.25-0.25v-0.125l0.75-0.75 0.125 0.125v0.25l-0.125 0.125v0.375l-0.125 0.125v0.625l-0.125 0.125v1l0.125 0.125h0.125l0.125 0.125h0.25l0.125-0.125 0.125 0.125h0.75l0.125-0.125 0.125 0.125h0.375l0.125-0.125h0.25l0.125-0.125v-0.25l-0.125-0.125h-0.125l-0.125-0.125h-1.625l-0.125-0.125v-0.25l0.125-0.125v-0.625l0.125-0.125v-0.375l0.125-0.125v-0.25l0.125-0.125v-0.125l0.125-0.125v-0.125l0.125-0.125v-0.125l0.125-0.125v-0.125l0.125-0.125v-0.125l-0.125-0.125v-0.125h-0.375l-0.125 0.125h-0.25l-0.125 0.125h-0.125l-0.25 0.25h-0.125l-0.25 0.25h-0.125l-0.5 0.5v0.125l-0.375 0.375v0.125l-0.25 0.25-0.125-0.125v-0.25l-0.125-0.125v-0.25l-0.25-0.25h-0.125l-0.75 0.75v0.125l-0.25 0.25-0.125-0.125v-0.375l-0.125-0.125v-0.25l-0.125-0.125v-0.125l-0.125-0.125v-0.125l-0.125-0.125v-0.25l-0.25-0.25v-0.25l-0.125-0.125v-0.125h-0.125l-0.125-0.125h-0.125l-0.25 0.25v0.25l-0.125 0.125v0.25l-0.125 0.125v0.25l-0.125 0.125v0.125l-0.125 0.125v0.25l-0.125 0.125v0.125l-0.125 0.125v0.125l-0.125 0.125v0.125l-0.25 0.25-0.125-0.125v-0.625l-0.125-0.125v-0.5l-0.125-0.125v-0.25h-0.5l-0.25 0.25h-0.125l-1.125 1.125v0.125l-0.125 0.125-0.125-0.125v-1.25l0.125-0.125v-0.625l0.125-0.125v-0.25l-0.25-0.25h-0.25l-0.25 0.25h-0.125l-0.25 0.25h-0.125l-0.75 0.75v0.125l-0.375 0.375v0.125l-0.125 0.125v0.125l-0.125 0.125v0.125l-0.125 0.125v0.125l-0.125 0.125-0.25-0.25v-0.125l-0.125-0.125v-0.125l-0.125-0.125v-0.125l-0.75-0.75h-0.375l-0.125 0.125v0.125l-0.375 0.375v0.125l-0.125 0.125v0.125l-0.25 0.25-0.125-0.125v-0.125l-0.125-0.125v-0.375l-0.125-0.125v-0.375l-0.125-0.125v-0.25l-0.125-0.125v-0.375l-0.25-0.25h-0.125l-0.375 0.375v0.125l-0.5 0.5v0.125l-0.125 0.125v0.125l-0.25 0.25v0.125l-0.125 0.125v0.125l-0.125 0.125v0.125l-0.125 0.125v0.25l-0.25 0.25-0.125-0.125v-0.125l-0.125-0.125v-0.125l-0.25-0.25v-0.125l-0.25-0.25v-0.125l-0.875-0.875h-0.125l-0.25-0.25h-0.125l-0.25-0.25h-0.125l-0.125-0.125h-0.125l-0.125-0.125z"></path>
<path fill="black" d="M13.25 13.75l-0.125 0.125h-0.125l-0.25 0.25v0.125l-0.125 0.125v0.25l-0.125 0.125v0.25l0.125 0.125v0.25l0.125 0.125v0.125l0.25 0.25h0.125l0.125 0.125h1l0.125 0.125v1.875l-0.125 0.125h-0.5l-0.125 0.125v0.125l-0.125 0.125v1.875l-0.125 0.125h-3.875l-0.125 0.125h-0.125l-0.25 0.25h-0.125l-0.125 0.125v0.125l-0.125 0.125v0.125l-0.125 0.125v0.25l-0.125 0.125v1.75l0.25 0.25h0.25l0.125-0.125v-0.125l0.125-0.125v-1.875l0.375-0.375h0.125l0.125-0.125h12.375l0.125 0.125h0.125l0.375 0.375v0.25l0.125 0.125v1.75l0.125 0.125h0.25l0.125-0.125v-0.125l0.125-0.125v-0.125l-0.125-0.125v-0.125l0.125-0.125-0.125-0.125 0.125-0.125v-0.375l-0.125-0.125 0.125-0.125v-0.125l-0.125-0.125v-0.375l-0.125-0.125v-0.125l-0.625-0.625h-0.25l-0.125-0.125h-3.75l-0.125-0.125 0.125-0.125v-0.125l-0.125-0.125 0.125-0.125v-0.25l-0.125-0.125 0.125-0.125v-0.25l-0.125-0.125 0.125-0.125v-0.125l-0.125-0.125v-0.25l-0.25-0.25h-0.5l-0.125-0.125v-1.875l0.125-0.125h1l0.125-0.125h0.125l0.375-0.375v-0.25l0.125-0.125v-0.5l-0.125-0.125v-0.25l-0.375-0.375h-0.125l-0.125-0.125z"></path>
<path d="M22.375 13l-0.25 0.25h-0.125l-0.25 0.25h-0.125l-0.25 0.25h-0.125v0.5l0.125 0.125h0.25l0.125-0.125h0.125l0.25-0.25h0.125l0.25-0.25h0.125l0.125-0.125v-0.125l0.125-0.125v-0.125l-0.25-0.25z"></path>
<path d="M9.25 13l-0.25 0.25v0.25l0.25 0.25h0.125l0.25 0.25h0.125l0.25 0.25h0.125l0.125 0.125h0.25l0.25-0.25v-0.125l-0.125-0.125v-0.125l-0.125-0.125h-0.125l-0.125-0.125h-0.125l-0.25-0.25h-0.125l-0.25-0.25z"></path>
<path d="M20.5 11.875l-0.125 0.125h-0.125v0.125l-0.5 0.5v0.125l-0.25 0.25v0.25l0.125 0.125h0.125l0.125 0.125 0.125-0.125h0.125l0.125-0.125v-0.125l0.5-0.5v-0.125l0.125-0.125v-0.25l-0.25-0.25z"></path>
<path d="M11.375 11.875l-0.125 0.125h-0.125l-0.125 0.125v0.375l0.5 0.5v0.125l0.25 0.25h0.125l0.125 0.125 0.125-0.125h0.125l0.125-0.125v-0.25l-0.125-0.125v-0.125l-0.625-0.625v-0.125h-0.125z"></path>
<path d="M25 11.75l-0.125 0.125h-0.125l-0.125 0.125h-0.25l-0.125 0.125h-0.125l-0.125 0.125h-0.125l-0.25 0.25v0.125l0.125 0.125v0.125h0.5l0.125-0.125h0.25l0.125-0.125h0.125l0.125-0.125h0.25l0.25-0.25v-0.375l-0.125-0.125z"></path>
<path d="M6.5 11.75l-0.125 0.125v0.375l0.125 0.125h0.125l0.125 0.125h0.125l0.125 0.125h0.25l0.125 0.125h0.125l0.125 0.125h0.375l0.125-0.125v-0.375l-0.125-0.125h-0.125l-0.125-0.125h-0.125l-0.125-0.125h-0.25l-0.125-0.125h-0.125l-0.125-0.125z"></path>
<path d="M28 10.75l-0.125 0.125h-0.375l-0.125 0.125h-0.25l-0.125 0.125h-0.25l-0.125 0.125h-0.125v0.125l-0.125 0.125 0.125 0.125v0.125l0.125 0.125h0.25l0.125-0.125h0.25l0.125-0.125h0.375l0.125-0.125h0.25l0.25-0.25v-0.25l-0.125-0.125h-0.125z"></path>
<path d="M3.75 10.75l-0.25 0.25v0.25l0.25 0.25h0.375l0.125 0.125h0.25l0.125 0.125h0.25l0.125 0.125h0.25l0.125-0.125v-0.125l0.125-0.125-0.125-0.125v-0.125h-0.125l-0.125-0.125h-0.25l-0.125-0.125h-0.25l-0.125-0.125h-0.25l-0.125-0.125z"></path>
<path d="M19.375 10.25l-0.125 0.125v0.125l-0.25 0.25v0.125l-0.25 0.25v0.125l-0.125 0.125v0.25l0.125 0.125h0.5v-0.125l0.25-0.25v-0.125l0.25-0.25v-0.125l0.125-0.125v-0.125l0.125-0.125-0.125-0.125v-0.125z"></path>
<path d="M12 10.25v0.125l-0.125 0.125v0.125l0.125 0.125v0.125l0.25 0.25v0.125l0.25 0.25v0.125l0.125 0.125h0.5v-0.125l0.125-0.125-0.125-0.125v-0.25l-0.25-0.25v-0.125l-0.25-0.25v-0.125l-0.125-0.125z"></path>
<path d="M22.5 10l-0.125 0.125h-0.125l-0.875 0.875v0.25l0.25 0.25h0.125l0.125-0.125h0.125l0.875-0.875v-0.375h-0.125l-0.125-0.125z"></path>
<path d="M9.125 10l-0.125 0.125v0.125l-0.125 0.125 0.125 0.125v0.125l0.125 0.125h0.125l0.625 0.625h0.125l0.125 0.125h0.125l0.25-0.25v-0.25l-0.875-0.875h-0.125l-0.125-0.125z"></path>
<path d="M15.875 9.75l-0.25 0.25v1.5l0.125 0.125h0.375l0.125-0.125v-1.5l-0.125-0.125h-0.125z"></path>
<path d="M18.125 9l-0.25 0.25v0.125l-0.125 0.125v0.25l-0.125 0.125v0.25l-0.125 0.125v0.125l0.125 0.125v0.125h0.125l0.125 0.125 0.125-0.125h0.125l0.125-0.125v-0.25l0.125-0.125v-0.25l0.125-0.125v-0.25l0.125-0.125v-0.125l-0.25-0.25z"></path>
<path d="M13.5 9l-0.125 0.125v0.625l0.125 0.125v0.25l0.125 0.125v0.25l0.125 0.125h0.125l0.125 0.125 0.125-0.125h0.125v-0.125l0.125-0.125v-0.125l-0.125-0.125v-0.25l-0.125-0.125v-0.25l-0.125-0.125v-0.25l-0.125-0.125z"></path>
<path d="M24.75 8.375l-0.25 0.25h-0.125l-0.125 0.125h-0.125l-0.25 0.25h-0.125l-0.25 0.25v0.125l0.125 0.125v0.125h0.125l0.125 0.125 0.125-0.125h0.125l0.125-0.125h0.125l0.125-0.125h0.125l0.25-0.25h0.125l0.125-0.125h0.125v-0.125l0.125-0.125v-0.25l-0.125-0.125z"></path>
<path d="M6.625 8.375v0.125l-0.125 0.125v0.125l0.125 0.125v0.125h0.125l0.125 0.125h0.125l0.25 0.25h0.125l0.125 0.125h0.125l0.125 0.125h0.375l0.125-0.125v-0.375l-0.25-0.25h-0.125l-0.125-0.125h-0.125l-0.125-0.125h-0.125l-0.25-0.25z"></path>
<path d="M21.125 8l-0.5 0.5v0.125l-0.375 0.375v0.375l0.125 0.125h0.375l0.5-0.5v-0.125l0.375-0.375v-0.375l-0.125-0.125z"></path>
<path d="M10.375 8l-0.125 0.125v0.375l0.375 0.375v0.125l0.5 0.5h0.375l0.125-0.125v-0.375l-0.375-0.375v-0.125l-0.5-0.5z"></path>
<path d="M15.75 7.25l-0.125 0.125v1.375h0.125l0.125 0.125h0.125l0.125-0.125h0.125v-1.375l-0.125-0.125z"></path>
<path d="M27.625 6.875l-0.125 0.125h-0.125l-0.125 0.125h-0.125l-0.125 0.125h-0.125l-0.125 0.125h-0.125l-0.125 0.125h-0.125l-0.25 0.25v0.25l0.25 0.25h0.125l0.125-0.125h0.125l0.125-0.125h0.125l0.125-0.125h0.125l0.125-0.125h0.125l0.125-0.125h0.125l0.125-0.125v-0.125l0.125-0.125-0.125-0.125v-0.125h-0.125z"></path>
<path d="M4.25 6.875l-0.125 0.125h-0.125v0.125l-0.125 0.125v0.125l0.25 0.25h0.125l0.125 0.125h0.125l0.125 0.125h0.125l0.125 0.125h0.125l0.125 0.125h0.125l0.125 0.125h0.125l0.25-0.25v-0.25l-0.25-0.25h-0.125l-0.25-0.25h-0.125l-0.125-0.125h-0.125l-0.125-0.125h-0.25z"></path>
<path d="M19.25 6.625v0.125l-0.25 0.25v0.125l-0.125 0.125v0.125l-0.125 0.125v0.125l-0.125 0.125v0.25l0.125 0.125h0.5l0.125-0.125v-0.125l0.125-0.125v-0.125l0.125-0.125v-0.125l0.25-0.25v-0.375l-0.125-0.125z"></path>
<path d="M12.125 6.625v0.125l-0.125 0.125v0.125l0.125 0.125v0.125l0.125 0.125v0.125l0.25 0.25v0.125l0.125 0.125v0.125h0.125l0.125 0.125h0.125l0.25-0.25v-0.25l-0.125-0.125v-0.125l-0.125-0.125v-0.125l-0.125-0.125v-0.125l-0.25-0.25v-0.125z"></path>
<path d="M23.375 5.875l-0.25 0.25h-0.125l-0.75 0.75v0.25l0.125 0.125v0.125h0.375l0.75-0.75h0.125l0.125-0.125v-0.125l0.125-0.125v-0.25l-0.125-0.125z"></path>
<path d="M8.125 5.875l-0.125 0.125v0.375l0.25 0.25h0.125l0.75 0.75h0.375l0.125-0.125v-0.375l-0.875-0.875h-0.125l-0.125-0.125z"></path>
<path d="M15.875 4.625l-0.125 0.125h-0.125v1.375l0.125 0.125h0.375l0.125-0.125v-1.25l-0.25-0.25z"></path>
<path d="M21.125 4.25l-0.125 0.125h-0.125v0.125l-0.375 0.375v0.125l-0.375 0.375v0.375l0.125 0.125h0.375l0.375-0.375v-0.125l0.375-0.375v-0.125l0.125-0.125v-0.25l-0.25-0.25z"></path>
<path d="M10.75  4.25l-0.125 0.125h-0.125v0.125l-0.125 0.125v0.125l0.25 0.25v0.125l0.375 0.375v0.125l0.25 0.25h0.375l0.125-0.125v-0.375l-0.125-0.125v-0.125l-0.375-0.375v-0.125l-0.375-0.375z"></path>
<path d="M25.375 4.125l-0.25 0.25h-0.125l-0.625 0.625v0.25l0.125 0.125h0.125l0.125 0.125 0.125-0.125h0.125l0.375-0.375h0.125l0.375-0.375v-0.5z" ></path>
<path d="M6.25 4l-0.125 0.125h-0.125v0.5l0.375 0.375h0.125l0.375 0.375h0.5v-0.125l0.125-0.125v-0.125l-0.625-0.625h-0.125l-0.25-0.25h-0.125z" ></path>
</symbol>
</defs>
</svg>